<?xml version="1.0" encoding="UTF-8"?>
<!DOCTYPE svg PUBLIC "-//W3C//DTD SVG 1.1//EN" "http://www.w3.org/Graphics/SVG/1.1/DTD/svg11.dtd">
<!-- Creator: CorelDRAW X8 -->
<svg xmlns="http://www.w3.org/2000/svg" xml:space="preserve" width="6.5408in" height="1.3787in" version="1.1" style="shape-rendering:geometricPrecision; text-rendering:geometricPrecision; image-rendering:optimizeQuality; fill-rule:evenodd; clip-rule:evenodd"
viewBox="0 0 4604 970"
 xmlns:xlink="http://www.w3.org/1999/xlink">
 <defs>
  <style type="text/css">
   <![CDATA[
    .str0 {stroke:ffffff;stroke-width:4.88805}
    .fil1 {fill:#ffffff}
    .fil2 {fill:#FF6600}
    .fil0 {fill:#ffffff;fill-rule:nonzero}
   ]]>
  </style>
 </defs>
 <g id="Layer_x0020_1">
  <metadata id="CorelCorpID_0Corel-Layer"/>
  <path class="fil0" d="M310 970c-65,0 -121,-12 -167,-36 -47,-25 -82,-60 -106,-107 -25,-46 -37,-102 -37,-168l0 -118c0,-65 12,-120 37,-166 24,-47 59,-82 106,-106 46,-24 102,-36 167,-36 37,0 72,4 105,13 33,9 63,22 89,40 26,17 48,37 66,62l0 0 -102 91 0 0c-20,-23 -44,-41 -71,-54 -27,-12 -56,-18 -85,-18 -54,0 -96,15 -126,46 -30,30 -45,73 -45,128l0 118c0,57 15,100 44,131 30,31 72,47 127,47 30,0 58,-7 86,-21 27,-13 50,-32 70,-56l0 0 102 98 0 0c-18,24 -40,44 -67,61 -26,17 -55,29 -88,38 -33,9 -68,13 -105,13z"/>
  <path class="fil0" d="M1018 970c-66,0 -123,-12 -170,-37 -47,-25 -82,-61 -107,-109 -25,-49 -37,-106 -37,-175l0 -80c0,-71 12,-132 36,-182 23,-50 58,-88 103,-115 45,-26 99,-39 163,-39 60,0 111,15 153,45 42,30 75,73 97,130 22,56 34,124 34,203l0 47 -484 0 0 -113 350 0 0 0c-5,-58 -20,-104 -46,-136 -25,-33 -60,-49 -104,-49 -53,0 -95,17 -124,53 -29,34 -44,84 -44,148l0 91c0,59 16,105 47,137 31,31 76,48 133,48 29,0 57,-6 85,-18 28,-11 53,-27 76,-48l0 0 92 92 0 0c-35,34 -75,61 -120,79 -44,19 -88,28 -133,28z"/>
  <path class="fil0" d="M1483 243l141 0 0 717 -141 0 0 -717zm394 170c-12,-15 -28,-27 -47,-34 -19,-8 -40,-12 -65,-12 -45,0 -80,12 -104,37 -25,25 -37,59 -37,102l-15 -138c22,-42 51,-76 86,-99 35,-24 74,-36 116,-36 33,0 62,5 89,14 26,10 49,23 69,42l-92 124z"/>
  <polygon class="fil0" points="2508,243 2655,243 2386,960 2280,960 2011,243 2158,243 2333,755 "/>
  <path class="fil0" d="M3546 243l141 0 0 717 -141 0 0 -717zm435 283c0,-51 -13,-90 -40,-118 -26,-27 -62,-41 -110,-41 -46,0 -81,12 -107,37 -25,24 -37,58 -37,102l-15 -138c22,-43 51,-76 87,-100 36,-23 75,-35 118,-35 78,0 138,25 181,76 42,51 64,123 64,216l0 435 -141 0 0 -434z"/>
  <path class="fil0" d="M4522 964c-58,0 -100,-16 -127,-49 -27,-32 -40,-79 -40,-141l0 -739 140 0 0 740c0,17 4,31 11,40 7,10 17,14 30,14l68 0 0 135 -82 0zm-241 -721l323 0 0 127 -323 0 0 -127z"/>
  <path class="fil1 str0" d="M3027 208l11 21 -377 724 -16 0 191 -373 191 -372zm31 60l18 35 -338 650 -37 0 357 -685zm38 74l18 35 -300 576 -36 0 318 -611zm38 74l18 35 -262 502 -36 0 280 -537zm38 74l18 35 -223 428 -36 0 241 -463zm38 74l8 16 10 19 -185 354 -16 0 -20 0 203 -389zm37 74l19 35 -146 280 -36 0 163 -315zm38 74l18 36 -107 205 -36 0 125 -241zm38 74l18 36 -68 131 -37 0 87 -167zm38 74l18 36 -30 57 -36 0 48 -93zm38 74l10 19 -20 0 10 -19z"/>
  <polygon class="fil2" points="2754,177 3051,0 3369,189 3049,74 "/>
 </g>
</svg>
